REM DIRINDEX 1\2\4,1\2\5,1\3\6,1\3\7,1\3\8
REM DIRNAME cjc094,folder01,folder02,folder03,folder04,folder05,folder06,folder07
TITLE ""
FILE "LV4_072_WORDS.mp3" MP3
  TRACK 01 AUDIO
    TITLE "0:"
    INDEX 01 00:00:00
  TRACK 02 AUDIO
    TITLE "6:cjc094_2539"
    INDEX 01 00:00:03
  TRACK 03 AUDIO
    TITLE "0:"
    INDEX 01 00:02:30
  TRACK 04 AUDIO
    TITLE "7:cjc094_2540"
    INDEX 01 00:03:14
  TRACK 05 AUDIO
    TITLE "0:"
    INDEX 01 00:04:15
  TRACK 06 AUDIO
    TITLE "8:cjc094_2541"
    INDEX 01 00:04:31
  TRACK 07 AUDIO
    TITLE "0:"
    INDEX 01 00:06:65
  TRACK 08 AUDIO
    TITLE "7:cjc094_2542"
    INDEX 01 00:07:37
  TRACK 09 AUDIO
    TITLE "0:"
    INDEX 01 00:08:38
  TRACK 10 AUDIO
    TITLE "8:cjc094_2543"
    INDEX 01 00:08:48
  TRACK 11 AUDIO
    TITLE "0:"
    INDEX 01 00:11:74
  TRACK 12 AUDIO
    TITLE "7:cjc094_2544"
    INDEX 01 00:12:46
  TRACK 13 AUDIO
    TITLE "0:"
    INDEX 01 00:13:69
  TRACK 14 AUDIO
    TITLE "8:cjc094_2545"
    INDEX 01 00:14:11
  TRACK 15 AUDIO
    TITLE "0:"
    INDEX 01 00:15:36
  TRACK 16 AUDIO
    TITLE "7:cjc094_2546"
    INDEX 01 00:16:12
  TRACK 17 AUDIO
    TITLE "0:"
    INDEX 01 00:17:16
  TRACK 18 AUDIO
    TITLE "8:cjc094_2547"
    INDEX 01 00:17:31
  TRACK 19 AUDIO
    TITLE "0:"
    INDEX 01 00:18:48
  TRACK 20 AUDIO
    TITLE "7:cjc094_2548"
    INDEX 01 00:19:22
  TRACK 21 AUDIO
    TITLE "0:"
    INDEX 01 00:20:16
  TRACK 22 AUDIO
    TITLE "8:cjc094_2549"
    INDEX 01 00:20:37
  TRACK 23 AUDIO
    TITLE "0:"
    INDEX 01 00:21:45
  TRACK 24 AUDIO
    TITLE "7:cjc094_2550"
    INDEX 01 00:22:21
  TRACK 25 AUDIO
    TITLE "0:"
    INDEX 01 00:23:16
  TRACK 26 AUDIO
    TITLE "8:cjc094_2551"
    INDEX 01 00:23:34
  TRACK 27 AUDIO
    TITLE "0:"
    INDEX 01 00:25:70
  TRACK 28 AUDIO
    TITLE "7:cjc094_2552"
    INDEX 01 00:26:42
  TRACK 29 AUDIO
    TITLE "0:"
    INDEX 01 00:27:41
  TRACK 30 AUDIO
    TITLE "8:cjc094_2553"
    INDEX 01 00:27:51
  TRACK 31 AUDIO
    TITLE "0:"
    INDEX 01 00:28:57
  TRACK 32 AUDIO
    TITLE "7:cjc094_2554"
    INDEX 01 00:29:33
  TRACK 33 AUDIO
    TITLE "0:"
    INDEX 01 00:30:40
  TRACK 34 AUDIO
    TITLE "8:cjc094_2555"
    INDEX 01 00:30:55
  TRACK 35 AUDIO
    TITLE "0:"
    INDEX 01 00:32:15
  TRACK 36 AUDIO
    TITLE "7:cjc094_2556"
    INDEX 01 00:32:66
  TRACK 37 AUDIO
    TITLE "0:"
    INDEX 01 00:33:64
  TRACK 38 AUDIO
    TITLE "8:cjc094_2557"
    INDEX 01 00:34:06
  TRACK 39 AUDIO
    TITLE "0:"
    INDEX 01 00:35:39
  TRACK 40 AUDIO
    TITLE "7:cjc094_2558"
    INDEX 01 00:36:11
  TRACK 41 AUDIO
    TITLE "0:"
    INDEX 01 00:37:22
  TRACK 42 AUDIO
    TITLE "8:cjc094_2559"
    INDEX 01 00:37:36
  TRACK 43 AUDIO
    TITLE "0:"
    INDEX 01 00:38:49
  TRACK 44 AUDIO
    TITLE "7:cjc094_2560"
    INDEX 01 00:39:19
  TRACK 45 AUDIO
    TITLE "0:"
    INDEX 01 00:40:34
  TRACK 46 AUDIO
    TITLE "8:cjc094_2561"
    INDEX 01 00:40:46
  TRACK 47 AUDIO
    TITLE "0:"
    INDEX 01 00:42:06
  TRACK 48 AUDIO
    TITLE "7:cjc094_2562"
    INDEX 01 00:42:53
  TRACK 49 AUDIO
    TITLE "0:"
    INDEX 01 00:44:09
  TRACK 50 AUDIO
    TITLE "8:cjc094_2563"
    INDEX 01 00:44:26
  TRACK 51 AUDIO
    TITLE "0:"
    INDEX 01 00:45:35
  TRACK 52 AUDIO
    TITLE "7:cjc094_2564"
    INDEX 01 00:46:09
  TRACK 53 AUDIO
    TITLE "0:"
    INDEX 01 00:47:07
  TRACK 54 AUDIO
    TITLE "8:cjc094_2565"
    INDEX 01 00:47:23
  TRACK 55 AUDIO
    TITLE "0:"
    INDEX 01 00:48:32
  TRACK 56 AUDIO
    TITLE "7:cjc094_2566"
    INDEX 01 00:48:73
  TRACK 57 AUDIO
    TITLE "0:"
    INDEX 01 00:49:74
  TRACK 58 AUDIO
    TITLE "8:cjc094_2567"
    INDEX 01 00:50:19
  TRACK 59 AUDIO
    TITLE "0:"
    INDEX 01 00:51:13
  TRACK 60 AUDIO
    TITLE "7:cjc094_2568"
    INDEX 01 00:51:63
  TRACK 61 AUDIO
    TITLE "0:"
    INDEX 01 00:53:00
  TRACK 62 AUDIO
    TITLE "8:cjc094_2569"
    INDEX 01 00:53:11
  TRACK 63 AUDIO
    TITLE "0:"
    INDEX 01 00:54:19
